# Blender 3.4.1
# www.blender.org
mtllib Dodecahedron.mtl
o Solid
v 0.577350 0.577350 -0.577350
v 0.577350 -0.577350 -0.577350
v 0.577350 0.577350 0.577350
v 0.577350 -0.577350 0.577350
v -0.577350 0.577350 -0.577350
v -0.577350 -0.577350 -0.577350
v -0.577350 0.577350 0.577350
v -0.577350 -0.577350 0.577350
v 0.356822 0.000000 -0.934172
v -0.356822 0.000000 -0.934172
v 0.356822 0.000000 0.934172
v -0.356822 0.000000 0.934172
v 0.934172 0.356822 0.000000
v 0.934172 -0.356822 0.000000
v -0.934172 0.356822 0.000000
v -0.934172 -0.356822 0.000000
v 0.000000 0.934172 -0.356822
v 0.000000 0.934172 0.356822
v 0.000000 -0.934172 -0.356822
v 0.000000 -0.934172 0.356822
v 0.675973 0.000000 -0.417775
v 0.675974 0.000000 0.417775
v 0.000000 0.417775 0.675973
v 0.417775 0.675973 0.000000
v 0.000000 0.417775 -0.675973
v -0.675974 0.000000 -0.417775
v -0.675974 0.000000 0.417775
v -0.417775 0.675974 0.000000
v 0.000000 -0.417775 0.675974
v -0.417775 -0.675974 0.000000
v 0.417775 -0.675973 0.000000
v 0.000000 -0.417775 -0.675974
vn -0.0000 0.5257 -0.8507
vn 0.5257 0.8507 -0.0000
vn -0.0000 -0.5257 -0.8507
vn 0.8507 -0.0000 0.5257
vn -0.5257 0.8507 -0.0000
vn -0.8507 -0.0000 -0.5257
vn -0.0000 0.5257 0.8507
vn 0.5257 -0.8507 -0.0000
vn -0.5257 -0.8507 -0.0000
vn -0.8507 -0.0000 0.5257
vn -0.0000 -0.5257 0.8507
vn 0.8507 -0.0000 -0.5257
s 0
f 1//1 9//1 25//1
f 9//1 10//1 25//1
f 1//2 17//2 24//2
f 17//2 18//2 24//2
f 9//3 2//3 32//3
f 2//3 19//3 32//3
f 13//4 3//4 22//4
f 3//4 11//4 22//4
f 17//5 5//5 28//5
f 5//5 15//5 28//5
f 10//6 6//6 26//6
f 6//6 16//6 26//6
f 7//7 12//7 23//7
f 12//7 11//7 23//7
f 4//8 20//8 31//8
f 20//8 19//8 31//8
f 8//9 16//9 30//9
f 16//9 6//9 30//9
f 8//10 12//10 27//10
f 12//10 7//10 27//10
f 8//11 20//11 29//11
f 20//11 4//11 29//11
f 1//12 13//12 21//12
f 13//12 14//12 21//12
f 14//12 2//12 21//12
f 2//12 9//12 21//12
f 9//12 1//12 21//12
f 11//4 4//4 22//4
f 4//4 14//4 22//4
f 14//4 13//4 22//4
f 11//7 3//7 23//7
f 3//7 18//7 23//7
f 18//7 7//7 23//7
f 18//2 3//2 24//2
f 3//2 13//2 24//2
f 13//2 1//2 24//2
f 10//1 5//1 25//1
f 5//1 17//1 25//1
f 17//1 1//1 25//1
f 16//6 15//6 26//6
f 15//6 5//6 26//6
f 5//6 10//6 26//6
f 7//10 15//10 27//10
f 15//10 16//10 27//10
f 16//10 8//10 27//10
f 15//5 7//5 28//5
f 7//5 18//5 28//5
f 18//5 17//5 28//5
f 4//11 11//11 29//11
f 11//11 12//11 29//11
f 12//11 8//11 29//11
f 6//9 19//9 30//9
f 19//9 20//9 30//9
f 20//9 8//9 30//9
f 19//8 2//8 31//8
f 2//8 14//8 31//8
f 14//8 4//8 31//8
f 19//3 6//3 32//3
f 6//3 10//3 32//3
f 10//3 9//3 32//3
